# xmcd
#
# Track frame offsets:
#	150
#	12475
#	25808
#	37435
#	50831
#	63516
#	74444
#	86559
#	98850
#	113072
#	130650
#	141603
#	153616
#	163410
#	174927
#	185137
#
# Disc length: 2630 seconds
#
# Revision: 1
# Processed by: cddbd v1.5.2PL0 Copyright (c) Steve Scherf et al.
# Submitted via: audiograbber 1.83.01
#
DISCID=f40a4410
DTITLE=Howlin' Wolf - Blues From Hell [CD3]
DYEAR=2011
DGENRE=Blues
TTITLE0=How Many More Years?
TTITLE1=I Love My Baby
TTITLE2=Who Will Be Next?
TTITLE3=I'm Leavin' You
TTITLE4=My Highway Man
TTITLE5=Who's Been Talking
TTITLE6=Getting Old And Grey
TTITLE7=Passing By Blues
TTITLE8=Worried All The Time
TTITLE9=Crying At Daybreak
TTITLE10=Somebody In My Home
TTITLE11=Riding In The Moonlight
TTITLE12=So Glad
TTITLE13=Saddle My Pony
TTITLE14=All Night Boogie (All Night Long)
TTITLE15=Goin' Back Home
EXTD=
EXTT0=
EXTT1=
EXTT2=
EXTT3=
EXTT4=
EXTT5=
EXTT6=
EXTT7=
EXTT8=
EXTT9=
EXTT10=
EXTT11=
EXTT12=
EXTT13=
EXTT14=
EXTT15=
PLAYORDER=
